<?xml version="1.0" standalone="no"?>
<!DOCTYPE svg PUBLIC "-//W3C//DTD SVG 20010904//EN"
 "http://www.w3.org/TR/2001/REC-SVG-20010904/DTD/svg10.dtd">
<svg version="1.0" xmlns="http://www.w3.org/2000/svg"
 width="225.000000pt" height="225.000000pt" viewBox="0 0 225.000000 225.000000"
 preserveAspectRatio="xMidYMid meet">

<g transform="translate(0.000000,225.000000) scale(0.100000,-0.100000)"
fill="#000000" stroke="none">
<path d="M310 2234 c-151 -41 -272 -172 -300 -326 -7 -37 -10 -319 -8 -820 3
-703 4 -767 21 -808 44 -113 152 -219 259 -257 50 -17 102 -18 843 -18 740 0
793 1 843 18 104 37 211 140 255 247 l22 55 0 795 c0 745 -1 798 -18 848 -38
107 -144 215 -257 259 -42 17 -104 18 -825 20 -664 2 -788 0 -835 -13z m812
-863 l163 -239 3 239 2 239 180 0 180 0 0 -485 0 -485 -179 0 -179 0 -163 239
-164 238 -3 -238 -2 -239 -180 0 -180 0 0 485 0 485 179 0 180 0 163 -239z"/>
</g>
</svg>
