<?xml version="1.0" standalone="no"?>
<!DOCTYPE svg PUBLIC "-//W3C//DTD SVG 20010904//EN"
 "http://www.w3.org/TR/2001/REC-SVG-20010904/DTD/svg10.dtd">
<svg version="1.0" xmlns="http://www.w3.org/2000/svg"
 width="900.000000pt" height="870.000000pt" viewBox="0 0 900.000000 870.000000"
 preserveAspectRatio="xMidYMid meet">

<g transform="translate(0.000000,870.000000) scale(0.100000,-0.100000)"
fill="#000000" stroke="none">
<path d="M4175 8284 c-1008 -81 -1843 -393 -2539 -948 -139 -110 -423 -398
-530 -536 -313 -404 -500 -825 -571 -1290 -22 -143 -30 -456 -16 -604 62 -632
353 -1219 851 -1716 239 -239 518 -448 830 -624 74 -41 141 -79 148 -83 9 -6
-32 -175 -178 -717 -104 -389 -190 -719 -190 -733 0 -61 71 -121 129 -108 15
3 181 109 367 235 186 126 429 289 539 364 110 74 327 220 483 325 l283 191
182 -22 c158 -19 231 -22 547 -22 315 0 390 3 549 23 894 108 1656 411 2286
909 131 103 415 382 512 502 357 443 568 929 623 1440 17 149 14 442 -5 585
-79 602 -351 1138 -818 1614 -647 659 -1566 1078 -2627 1197 -138 15 -731 28
-855 18z"/>
</g>
</svg>
